<mxfile host="app.diagrams.net" agent="Mozilla/5.0 (Macintosh; Intel Mac OS X 10_15_7) AppleWebKit/537.36 (KHTML, like Gecko) Chrome/130.0.0.0 Safari/537.36" version="24.8.4">
  <diagram name="第 1 页" id="AN9gKiS7ZF5wycbH4AYo">
    <mxGraphModel dx="1257" dy="520" grid="1" gridSize="10" guides="1" tooltips="1" connect="1" arrows="1" fold="1" page="1" pageScale="1" pageWidth="827" pageHeight="1169" math="0" shadow="0">
      <root>
        <mxCell id="0" />
        <mxCell id="1" parent="0" />
        <mxCell id="DSdHV_uYFFTrdiYxs1Vo-1" value="" style="rounded=1;whiteSpace=wrap;html=1;arcSize=18;fillColor=#f5f5f5;fontColor=#333333;strokeColor=#666666;glass=0;shadow=1;" vertex="1" parent="1">
          <mxGeometry x="278" y="60" width="750" height="300" as="geometry" />
        </mxCell>
        <mxCell id="DSdHV_uYFFTrdiYxs1Vo-3" value="" style="html=1;verticalLabelPosition=bottom;labelBackgroundColor=#ffffff;verticalAlign=top;shadow=0;dashed=0;strokeWidth=2;shape=mxgraph.ios7.misc.star;fillColor=#FFD966;strokeColor=#d6b656;sketch=0;" vertex="1" parent="1">
          <mxGeometry x="158" y="204" width="12" height="12" as="geometry" />
        </mxCell>
        <mxCell id="DSdHV_uYFFTrdiYxs1Vo-15" value="" style="edgeStyle=orthogonalEdgeStyle;rounded=0;orthogonalLoop=1;jettySize=auto;html=1;endArrow=classicThin;endFill=1;" edge="1" parent="1" source="DSdHV_uYFFTrdiYxs1Vo-14" target="DSdHV_uYFFTrdiYxs1Vo-1">
          <mxGeometry relative="1" as="geometry" />
        </mxCell>
        <UserObject label="瑜伽&lt;div&gt;（兴趣点）&lt;/div&gt;" placeholders="1" name="Variable" id="DSdHV_uYFFTrdiYxs1Vo-14">
          <mxCell style="text;html=1;strokeColor=none;fillColor=none;align=center;verticalAlign=middle;whiteSpace=wrap;overflow=hidden;" vertex="1" parent="1">
            <mxGeometry x="172" y="190" width="60" height="40" as="geometry" />
          </mxCell>
        </UserObject>
        <mxCell id="DSdHV_uYFFTrdiYxs1Vo-20" value="兴趣点拆解 CoT" style="text;strokeColor=none;fillColor=none;html=1;fontSize=16;fontStyle=1;verticalAlign=middle;align=center;" vertex="1" parent="1">
          <mxGeometry x="575.5" y="65" width="155" height="30" as="geometry" />
        </mxCell>
        <mxCell id="DSdHV_uYFFTrdiYxs1Vo-21" value="" style="shape=ext;double=1;rounded=1;whiteSpace=wrap;html=1;fillColor=#dae8fc;strokeColor=#6c8ebf;" vertex="1" parent="1">
          <mxGeometry x="300" y="100" width="120" height="240" as="geometry" />
        </mxCell>
        <mxCell id="DSdHV_uYFFTrdiYxs1Vo-22" value="相关关键词生成" style="text;strokeColor=none;fillColor=none;html=1;fontSize=12;fontStyle=1;verticalAlign=middle;align=center;fontColor=#7EA6E0;" vertex="1" parent="1">
          <mxGeometry x="310" y="110" width="100" height="40" as="geometry" />
        </mxCell>
        <mxCell id="DSdHV_uYFFTrdiYxs1Vo-23" value="瑜伽垫" style="rounded=1;whiteSpace=wrap;html=1;fillColor=#A9C4EB;strokeColor=#6c8ebf;" vertex="1" parent="1">
          <mxGeometry x="320" y="160" width="80" height="26" as="geometry" />
        </mxCell>
        <mxCell id="DSdHV_uYFFTrdiYxs1Vo-24" value="瑜伽服" style="rounded=1;whiteSpace=wrap;html=1;fillColor=#A9C4EB;strokeColor=#6c8ebf;" vertex="1" parent="1">
          <mxGeometry x="320" y="200" width="80" height="26" as="geometry" />
        </mxCell>
        <mxCell id="DSdHV_uYFFTrdiYxs1Vo-25" value="瑜伽砖" style="rounded=1;whiteSpace=wrap;html=1;fillColor=#A9C4EB;strokeColor=#6c8ebf;" vertex="1" parent="1">
          <mxGeometry x="320" y="240" width="80" height="26" as="geometry" />
        </mxCell>
        <mxCell id="DSdHV_uYFFTrdiYxs1Vo-26" value="……" style="rounded=1;whiteSpace=wrap;html=1;fillColor=#A9C4EB;strokeColor=#6c8ebf;" vertex="1" parent="1">
          <mxGeometry x="320" y="280" width="80" height="26" as="geometry" />
        </mxCell>
        <mxCell id="DSdHV_uYFFTrdiYxs1Vo-27" value="" style="shape=ext;double=1;rounded=1;whiteSpace=wrap;html=1;fillColor=#dae8fc;strokeColor=#6c8ebf;" vertex="1" parent="1">
          <mxGeometry x="450" y="100" width="190" height="240" as="geometry" />
        </mxCell>
        <mxCell id="DSdHV_uYFFTrdiYxs1Vo-28" value="关联理由生成&lt;div&gt;（解释性）&lt;/div&gt;" style="text;strokeColor=none;fillColor=none;html=1;fontSize=12;fontStyle=1;verticalAlign=middle;align=center;fontColor=#7EA6E0;" vertex="1" parent="1">
          <mxGeometry x="496" y="107" width="100" height="40" as="geometry" />
        </mxCell>
        <mxCell id="DSdHV_uYFFTrdiYxs1Vo-29" value="&lt;font style=&quot;font-size: 10px;&quot;&gt;瑜伽垫&lt;/font&gt;&lt;font style=&quot;font-size: 10px;&quot;&gt;：&lt;/font&gt;&lt;span style=&quot;color: rgb(50, 50, 50); font-family: &amp;quot;Microsoft YaHei&amp;quot;, 微软雅黑, Arial; font-size: 10px; background-color: rgba(255, 255, 255, 0.01);&quot;&gt;瑜伽练习的基础装备，消费者会搜索不同材质、厚度、图案的瑜伽垫。&lt;/span&gt;" style="rounded=1;whiteSpace=wrap;html=1;fillColor=#A9C4EB;strokeColor=#6c8ebf;fontSize=10;spacingLeft=3;spacingRight=3;" vertex="1" parent="1">
          <mxGeometry x="471" y="150" width="150" height="60" as="geometry" />
        </mxCell>
        <mxCell id="DSdHV_uYFFTrdiYxs1Vo-31" value="" style="edgeStyle=orthogonalEdgeStyle;rounded=0;orthogonalLoop=1;jettySize=auto;html=1;entryX=0;entryY=0.5;entryDx=0;entryDy=0;endArrow=classicThin;endFill=1;" edge="1" parent="1" source="DSdHV_uYFFTrdiYxs1Vo-23" target="DSdHV_uYFFTrdiYxs1Vo-29">
          <mxGeometry relative="1" as="geometry" />
        </mxCell>
        <mxCell id="DSdHV_uYFFTrdiYxs1Vo-32" value="&lt;font style=&quot;font-size: 10px;&quot;&gt;瑜伽服&lt;/font&gt;&lt;font style=&quot;font-size: 10px;&quot;&gt;：&lt;/font&gt;&lt;span style=&quot;color: rgb(50, 50, 50); font-family: &amp;quot;Microsoft YaHei&amp;quot;, 微软雅黑, Arial; background-color: rgba(255, 255, 255, 0.01);&quot;&gt;&lt;font style=&quot;font-size: 10px;&quot;&gt;专为瑜伽设计的服装，需舒适、透气，消费者会寻找特定品牌或功能性服装。&lt;/font&gt;&lt;/span&gt;" style="rounded=1;whiteSpace=wrap;html=1;fillColor=#A9C4EB;strokeColor=#6c8ebf;fontSize=10;spacingLeft=3;spacingRight=3;" vertex="1" parent="1">
          <mxGeometry x="471" y="224" width="150" height="60" as="geometry" />
        </mxCell>
        <mxCell id="DSdHV_uYFFTrdiYxs1Vo-33" style="edgeStyle=orthogonalEdgeStyle;rounded=0;orthogonalLoop=1;jettySize=auto;html=1;entryX=0;entryY=0.5;entryDx=0;entryDy=0;endArrow=classicThin;endFill=1;" edge="1" parent="1" source="DSdHV_uYFFTrdiYxs1Vo-24" target="DSdHV_uYFFTrdiYxs1Vo-32">
          <mxGeometry relative="1" as="geometry" />
        </mxCell>
        <mxCell id="DSdHV_uYFFTrdiYxs1Vo-34" value="……" style="rounded=1;whiteSpace=wrap;html=1;fillColor=#A9C4EB;strokeColor=#6c8ebf;" vertex="1" parent="1">
          <mxGeometry x="471" y="300" width="149" height="26" as="geometry" />
        </mxCell>
        <mxCell id="DSdHV_uYFFTrdiYxs1Vo-49" value="" style="edgeStyle=orthogonalEdgeStyle;rounded=0;orthogonalLoop=1;jettySize=auto;html=1;entryX=0;entryY=0.5;entryDx=0;entryDy=0;endArrow=classicThin;endFill=1;" edge="1" parent="1" source="DSdHV_uYFFTrdiYxs1Vo-35" target="DSdHV_uYFFTrdiYxs1Vo-45">
          <mxGeometry relative="1" as="geometry" />
        </mxCell>
        <mxCell id="DSdHV_uYFFTrdiYxs1Vo-35" value="" style="shape=ext;double=1;rounded=1;whiteSpace=wrap;html=1;fillColor=#dae8fc;strokeColor=#6c8ebf;" vertex="1" parent="1">
          <mxGeometry x="671" y="100" width="150" height="240" as="geometry" />
        </mxCell>
        <mxCell id="DSdHV_uYFFTrdiYxs1Vo-36" value="具体关键词生成" style="text;strokeColor=none;fillColor=none;html=1;fontSize=12;fontStyle=1;verticalAlign=middle;align=center;fontColor=#7EA6E0;" vertex="1" parent="1">
          <mxGeometry x="696" y="110" width="100" height="40" as="geometry" />
        </mxCell>
        <mxCell id="DSdHV_uYFFTrdiYxs1Vo-37" value="&lt;span style=&quot;color: rgb(50, 50, 50); font-family: &amp;quot;Microsoft YaHei&amp;quot;, 微软雅黑, Arial; font-size: 13px; background-color: rgba(255, 255, 255, 0.01);&quot;&gt;瑜伽垫防滑&lt;/span&gt;" style="rounded=1;whiteSpace=wrap;html=1;fillColor=#A9C4EB;strokeColor=#6c8ebf;" vertex="1" parent="1">
          <mxGeometry x="693.5" y="160" width="107.5" height="26" as="geometry" />
        </mxCell>
        <mxCell id="DSdHV_uYFFTrdiYxs1Vo-38" value="&lt;span style=&quot;color: rgb(50, 50, 50); font-family: &amp;quot;Microsoft YaHei&amp;quot;, 微软雅黑, Arial; font-size: 13px; background-color: rgba(255, 255, 255, 0.01);&quot;&gt;加厚瑜伽垫&lt;/span&gt;" style="rounded=1;whiteSpace=wrap;html=1;fillColor=#A9C4EB;strokeColor=#6c8ebf;" vertex="1" parent="1">
          <mxGeometry x="693.5" y="200" width="107.5" height="26" as="geometry" />
        </mxCell>
        <mxCell id="DSdHV_uYFFTrdiYxs1Vo-39" value="&lt;span style=&quot;color: rgb(50, 50, 50); font-family: &amp;quot;Microsoft YaHei&amp;quot;, 微软雅黑, Arial; font-size: 13px; background-color: rgba(255, 255, 255, 0.01);&quot;&gt;瑜伽垫清洁剂&lt;/span&gt;" style="rounded=1;whiteSpace=wrap;html=1;fillColor=#A9C4EB;strokeColor=#6c8ebf;" vertex="1" parent="1">
          <mxGeometry x="693.5" y="240" width="105" height="26" as="geometry" />
        </mxCell>
        <mxCell id="DSdHV_uYFFTrdiYxs1Vo-40" value="&lt;span style=&quot;color: rgb(50, 50, 50); font-family: &amp;quot;Microsoft YaHei&amp;quot;, 微软雅黑, Arial; font-size: 13px; background-color: rgba(255, 255, 255, 0.01);&quot;&gt;……&lt;/span&gt;" style="rounded=1;whiteSpace=wrap;html=1;fillColor=#A9C4EB;strokeColor=#6c8ebf;" vertex="1" parent="1">
          <mxGeometry x="691" y="280" width="110" height="26" as="geometry" />
        </mxCell>
        <mxCell id="DSdHV_uYFFTrdiYxs1Vo-41" value="" style="edgeStyle=orthogonalEdgeStyle;rounded=0;orthogonalLoop=1;jettySize=auto;html=1;entryX=0;entryY=0.5;entryDx=0;entryDy=0;endArrow=classicThin;endFill=1;" edge="1" parent="1" source="DSdHV_uYFFTrdiYxs1Vo-29" target="DSdHV_uYFFTrdiYxs1Vo-37">
          <mxGeometry relative="1" as="geometry" />
        </mxCell>
        <mxCell id="DSdHV_uYFFTrdiYxs1Vo-42" value="" style="endArrow=classicThin;html=1;rounded=0;entryX=0;entryY=0.5;entryDx=0;entryDy=0;exitX=1;exitY=0.5;exitDx=0;exitDy=0;edgeStyle=orthogonalEdgeStyle;endFill=1;" edge="1" parent="1" source="DSdHV_uYFFTrdiYxs1Vo-29" target="DSdHV_uYFFTrdiYxs1Vo-38">
          <mxGeometry width="50" height="50" relative="1" as="geometry">
            <mxPoint x="560" y="230" as="sourcePoint" />
            <mxPoint x="610" y="180" as="targetPoint" />
          </mxGeometry>
        </mxCell>
        <mxCell id="DSdHV_uYFFTrdiYxs1Vo-43" value="" style="endArrow=classicThin;html=1;rounded=0;entryX=0;entryY=0.5;entryDx=0;entryDy=0;exitX=1;exitY=0.5;exitDx=0;exitDy=0;edgeStyle=orthogonalEdgeStyle;endFill=1;" edge="1" parent="1" source="DSdHV_uYFFTrdiYxs1Vo-29" target="DSdHV_uYFFTrdiYxs1Vo-39">
          <mxGeometry width="50" height="50" relative="1" as="geometry">
            <mxPoint x="610" y="400" as="sourcePoint" />
            <mxPoint x="660" y="350" as="targetPoint" />
          </mxGeometry>
        </mxCell>
        <mxCell id="DSdHV_uYFFTrdiYxs1Vo-45" value="" style="shape=ext;double=1;rounded=1;whiteSpace=wrap;html=1;fillColor=#dae8fc;strokeColor=#6c8ebf;" vertex="1" parent="1">
          <mxGeometry x="856" y="100" width="150" height="240" as="geometry" />
        </mxCell>
        <mxCell id="DSdHV_uYFFTrdiYxs1Vo-46" value="关键词剔除&lt;div&gt;（反思模块）&lt;/div&gt;" style="text;strokeColor=none;fillColor=none;html=1;fontSize=12;fontStyle=1;verticalAlign=middle;align=center;fontColor=#7EA6E0;" vertex="1" parent="1">
          <mxGeometry x="881" y="110" width="100" height="40" as="geometry" />
        </mxCell>
        <mxCell id="DSdHV_uYFFTrdiYxs1Vo-48" value="&lt;span style=&quot;color: rgb(50, 50, 50); font-family: &amp;quot;Microsoft YaHei&amp;quot;, 微软雅黑, Arial; font-size: 13px; background-color: rgba(255, 255, 255, 0.01);&quot;&gt;瑜伽相关的非直接购物行为的关键词如“瑜伽哲学”、“瑜伽文化”等，因为这些并不直接与消费者的购物行为相关。&lt;/span&gt;" style="rounded=1;whiteSpace=wrap;html=1;fillColor=#A9C4EB;strokeColor=#6c8ebf;spacingLeft=4;spacingRight=4;" vertex="1" parent="1">
          <mxGeometry x="874.63" y="160" width="112.75" height="150" as="geometry" />
        </mxCell>
      </root>
    </mxGraphModel>
  </diagram>
</mxfile>
